<mxfile host="app.diagrams.net" agent="Mozilla/5.0 (Windows NT 10.0; Win64; x64) AppleWebKit/537.36 (KHTML, like Gecko) Chrome/134.0.0.0 Safari/537.36" version="26.1.3">
  <diagram name="Page-1" id="IhWmdS7UvB_HFLdV28Bj">
    <mxGraphModel dx="660" dy="820" grid="1" gridSize="10" guides="1" tooltips="1" connect="1" arrows="1" fold="1" page="1" pageScale="1" pageWidth="4681" pageHeight="3300" math="0" shadow="0">
      <root>
        <mxCell id="0" />
        <mxCell id="1" parent="0" />
        <mxCell id="ptOAySIuDSNhJ5s_2BM6-12" style="edgeStyle=orthogonalEdgeStyle;rounded=0;orthogonalLoop=1;jettySize=auto;html=1;exitX=1;exitY=0.5;exitDx=0;exitDy=0;" parent="1" source="ptOAySIuDSNhJ5s_2BM6-1" target="ptOAySIuDSNhJ5s_2BM6-2" edge="1">
          <mxGeometry relative="1" as="geometry" />
        </mxCell>
        <mxCell id="ptOAySIuDSNhJ5s_2BM6-39" style="edgeStyle=orthogonalEdgeStyle;rounded=0;orthogonalLoop=1;jettySize=auto;html=1;exitX=0.75;exitY=0;exitDx=0;exitDy=0;entryX=0.5;entryY=1;entryDx=0;entryDy=0;" parent="1" source="ptOAySIuDSNhJ5s_2BM6-1" target="ptOAySIuDSNhJ5s_2BM6-38" edge="1">
          <mxGeometry relative="1" as="geometry" />
        </mxCell>
        <mxCell id="ptOAySIuDSNhJ5s_2BM6-1" value="&lt;div&gt;&lt;span style=&quot;background-color: transparent; color: light-dark(rgb(0, 0, 0), rgb(255, 255, 255));&quot;&gt;BASE&lt;/span&gt;&lt;/div&gt;&lt;div&gt;&lt;span style=&quot;background-color: transparent; color: light-dark(rgb(0, 0, 0), rgb(255, 255, 255));&quot;&gt;&lt;font style=&quot;font-size: 11px;&quot;&gt;refillAgentTank()&lt;/font&gt;&lt;/span&gt;&lt;/div&gt;&lt;div&gt;&lt;span style=&quot;background-color: transparent; color: light-dark(rgb(0, 0, 0), rgb(255, 255, 255));&quot;&gt;&lt;font style=&quot;font-size: 11px;&quot;&gt;sendDroneInfo()&lt;/font&gt;&lt;/span&gt;&lt;/div&gt;" style="html=1;align=center;verticalAlign=top;rounded=1;absoluteArcSize=1;arcSize=10;dashed=0;whiteSpace=wrap;" parent="1" vertex="1">
          <mxGeometry x="195" y="230" width="130" height="60" as="geometry" />
        </mxCell>
        <mxCell id="ptOAySIuDSNhJ5s_2BM6-13" style="edgeStyle=orthogonalEdgeStyle;rounded=0;orthogonalLoop=1;jettySize=auto;html=1;exitX=1;exitY=0.5;exitDx=0;exitDy=0;" parent="1" source="ptOAySIuDSNhJ5s_2BM6-2" target="ptOAySIuDSNhJ5s_2BM6-3" edge="1">
          <mxGeometry relative="1" as="geometry" />
        </mxCell>
        <mxCell id="ptOAySIuDSNhJ5s_2BM6-2" value="TAKEOFF&lt;div&gt;&lt;font style=&quot;font-size: 11px;&quot;&gt;takeoff()&lt;/font&gt;&lt;/div&gt;" style="html=1;align=center;verticalAlign=top;rounded=1;absoluteArcSize=1;arcSize=10;dashed=0;whiteSpace=wrap;" parent="1" vertex="1">
          <mxGeometry x="500" y="240" width="100" height="40" as="geometry" />
        </mxCell>
        <mxCell id="ptOAySIuDSNhJ5s_2BM6-14" style="edgeStyle=orthogonalEdgeStyle;rounded=0;orthogonalLoop=1;jettySize=auto;html=1;exitX=1;exitY=0.5;exitDx=0;exitDy=0;entryX=0;entryY=0.5;entryDx=0;entryDy=0;" parent="1" source="ptOAySIuDSNhJ5s_2BM6-3" target="ptOAySIuDSNhJ5s_2BM6-4" edge="1">
          <mxGeometry relative="1" as="geometry" />
        </mxCell>
        <mxCell id="ptOAySIuDSNhJ5s_2BM6-3" value="ACCELERATING&lt;div&gt;&lt;font style=&quot;font-size: 11px;&quot;&gt;accelerate()&lt;/font&gt;&lt;/div&gt;" style="html=1;align=center;verticalAlign=top;rounded=1;absoluteArcSize=1;arcSize=10;dashed=0;whiteSpace=wrap;" parent="1" vertex="1">
          <mxGeometry x="770" y="240" width="130" height="40" as="geometry" />
        </mxCell>
        <mxCell id="ptOAySIuDSNhJ5s_2BM6-15" style="edgeStyle=orthogonalEdgeStyle;rounded=0;orthogonalLoop=1;jettySize=auto;html=1;exitX=1;exitY=0.5;exitDx=0;exitDy=0;entryX=0;entryY=0.5;entryDx=0;entryDy=0;" parent="1" source="ptOAySIuDSNhJ5s_2BM6-4" target="ptOAySIuDSNhJ5s_2BM6-5" edge="1">
          <mxGeometry relative="1" as="geometry" />
        </mxCell>
        <mxCell id="ptOAySIuDSNhJ5s_2BM6-4" value="FLYING&lt;div&gt;&lt;font style=&quot;font-size: 11px;&quot;&gt;fly()&lt;/font&gt;&lt;/div&gt;" style="html=1;align=center;verticalAlign=top;rounded=1;absoluteArcSize=1;arcSize=10;dashed=0;whiteSpace=wrap;" parent="1" vertex="1">
          <mxGeometry x="1060" y="240" width="100" height="40" as="geometry" />
        </mxCell>
        <mxCell id="ptOAySIuDSNhJ5s_2BM6-16" style="edgeStyle=orthogonalEdgeStyle;rounded=0;orthogonalLoop=1;jettySize=auto;html=1;exitX=0.5;exitY=1;exitDx=0;exitDy=0;entryX=0.5;entryY=0;entryDx=0;entryDy=0;" parent="1" source="ptOAySIuDSNhJ5s_2BM6-5" target="ptOAySIuDSNhJ5s_2BM6-6" edge="1">
          <mxGeometry relative="1" as="geometry">
            <Array as="points">
              <mxPoint x="1380" y="430" />
              <mxPoint x="260" y="430" />
            </Array>
          </mxGeometry>
        </mxCell>
        <mxCell id="ptOAySIuDSNhJ5s_2BM6-17" style="edgeStyle=orthogonalEdgeStyle;rounded=0;orthogonalLoop=1;jettySize=auto;html=1;exitX=0.5;exitY=1;exitDx=0;exitDy=0;entryX=0.5;entryY=0;entryDx=0;entryDy=0;" parent="1" source="ptOAySIuDSNhJ5s_2BM6-5" target="ptOAySIuDSNhJ5s_2BM6-7" edge="1">
          <mxGeometry relative="1" as="geometry">
            <Array as="points">
              <mxPoint x="1380" y="380" />
              <mxPoint x="470" y="380" />
            </Array>
          </mxGeometry>
        </mxCell>
        <mxCell id="ptOAySIuDSNhJ5s_2BM6-21" style="edgeStyle=orthogonalEdgeStyle;rounded=0;orthogonalLoop=1;jettySize=auto;html=1;exitX=0.5;exitY=0;exitDx=0;exitDy=0;entryX=0.5;entryY=0;entryDx=0;entryDy=0;" parent="1" source="ptOAySIuDSNhJ5s_2BM6-5" target="ptOAySIuDSNhJ5s_2BM6-3" edge="1">
          <mxGeometry relative="1" as="geometry" />
        </mxCell>
        <mxCell id="ptOAySIuDSNhJ5s_2BM6-5" value="DECELERATING&lt;div&gt;&lt;font style=&quot;font-size: 11px;&quot;&gt;decelerate()&lt;/font&gt;&lt;/div&gt;" style="html=1;align=center;verticalAlign=top;rounded=1;absoluteArcSize=1;arcSize=10;dashed=0;whiteSpace=wrap;" parent="1" vertex="1">
          <mxGeometry x="1330" y="240" width="100" height="40" as="geometry" />
        </mxCell>
        <mxCell id="ptOAySIuDSNhJ5s_2BM6-22" style="edgeStyle=orthogonalEdgeStyle;rounded=0;orthogonalLoop=1;jettySize=auto;html=1;exitX=0;exitY=0.5;exitDx=0;exitDy=0;entryX=0;entryY=0.5;entryDx=0;entryDy=0;" parent="1" source="ptOAySIuDSNhJ5s_2BM6-6" target="ptOAySIuDSNhJ5s_2BM6-1" edge="1">
          <mxGeometry relative="1" as="geometry" />
        </mxCell>
        <mxCell id="ptOAySIuDSNhJ5s_2BM6-23" style="edgeStyle=orthogonalEdgeStyle;rounded=0;orthogonalLoop=1;jettySize=auto;html=1;exitX=0.75;exitY=0;exitDx=0;exitDy=0;entryX=0.25;entryY=1;entryDx=0;entryDy=0;" parent="1" source="ptOAySIuDSNhJ5s_2BM6-6" target="ptOAySIuDSNhJ5s_2BM6-2" edge="1">
          <mxGeometry relative="1" as="geometry">
            <Array as="points">
              <mxPoint x="285" y="320" />
              <mxPoint x="525" y="320" />
            </Array>
          </mxGeometry>
        </mxCell>
        <mxCell id="ptOAySIuDSNhJ5s_2BM6-6" value="LANDING&lt;div&gt;&lt;font style=&quot;font-size: 11px;&quot;&gt;land()&lt;/font&gt;&lt;/div&gt;" style="html=1;align=center;verticalAlign=top;rounded=1;absoluteArcSize=1;arcSize=10;dashed=0;whiteSpace=wrap;" parent="1" vertex="1">
          <mxGeometry x="210" y="500" width="100" height="40" as="geometry" />
        </mxCell>
        <mxCell id="ptOAySIuDSNhJ5s_2BM6-18" style="edgeStyle=orthogonalEdgeStyle;rounded=0;orthogonalLoop=1;jettySize=auto;html=1;exitX=1;exitY=0.5;exitDx=0;exitDy=0;entryX=0;entryY=0.5;entryDx=0;entryDy=0;" parent="1" source="ptOAySIuDSNhJ5s_2BM6-7" target="ptOAySIuDSNhJ5s_2BM6-8" edge="1">
          <mxGeometry relative="1" as="geometry" />
        </mxCell>
        <mxCell id="ptOAySIuDSNhJ5s_2BM6-25" style="edgeStyle=orthogonalEdgeStyle;rounded=0;orthogonalLoop=1;jettySize=auto;html=1;exitX=0.75;exitY=0;exitDx=0;exitDy=0;entryX=0.25;entryY=1;entryDx=0;entryDy=0;" parent="1" source="ptOAySIuDSNhJ5s_2BM6-7" target="ptOAySIuDSNhJ5s_2BM6-3" edge="1">
          <mxGeometry relative="1" as="geometry">
            <Array as="points">
              <mxPoint x="505" y="330" />
              <mxPoint x="690" y="330" />
            </Array>
          </mxGeometry>
        </mxCell>
        <mxCell id="ptOAySIuDSNhJ5s_2BM6-7" value="ARRIVED&lt;div&gt;&lt;font style=&quot;font-size: 11px;&quot;&gt;sendDroneInfo()&lt;/font&gt;&lt;/div&gt;" style="html=1;align=center;verticalAlign=top;rounded=1;absoluteArcSize=1;arcSize=10;dashed=0;whiteSpace=wrap;" parent="1" vertex="1">
          <mxGeometry x="420" y="500" width="100" height="40" as="geometry" />
        </mxCell>
        <mxCell id="ptOAySIuDSNhJ5s_2BM6-19" style="edgeStyle=orthogonalEdgeStyle;rounded=0;orthogonalLoop=1;jettySize=auto;html=1;exitX=1;exitY=0.5;exitDx=0;exitDy=0;entryX=0;entryY=0.5;entryDx=0;entryDy=0;" parent="1" source="ptOAySIuDSNhJ5s_2BM6-8" target="ptOAySIuDSNhJ5s_2BM6-9" edge="1">
          <mxGeometry relative="1" as="geometry" />
        </mxCell>
        <mxCell id="ptOAySIuDSNhJ5s_2BM6-20" style="edgeStyle=orthogonalEdgeStyle;rounded=0;orthogonalLoop=1;jettySize=auto;html=1;exitX=0.5;exitY=0;exitDx=0;exitDy=0;entryX=0.5;entryY=1;entryDx=0;entryDy=0;" parent="1" source="ptOAySIuDSNhJ5s_2BM6-8" target="ptOAySIuDSNhJ5s_2BM6-3" edge="1">
          <mxGeometry relative="1" as="geometry" />
        </mxCell>
        <mxCell id="ptOAySIuDSNhJ5s_2BM6-8" value="RELEASING_AGENT&lt;div&gt;&lt;font style=&quot;font-size: 11px;&quot;&gt;releaseAgent()&lt;/font&gt;&lt;/div&gt;&lt;div&gt;&lt;font style=&quot;font-size: 11px;&quot;&gt;eventReqServiceZone()/stopAgent()&lt;/font&gt;&lt;/div&gt;" style="html=1;align=center;verticalAlign=top;rounded=1;absoluteArcSize=1;arcSize=10;dashed=0;whiteSpace=wrap;" parent="1" vertex="1">
          <mxGeometry x="670" y="485" width="190" height="70" as="geometry" />
        </mxCell>
        <mxCell id="ptOAySIuDSNhJ5s_2BM6-24" style="edgeStyle=orthogonalEdgeStyle;rounded=0;orthogonalLoop=1;jettySize=auto;html=1;exitX=0.5;exitY=0;exitDx=0;exitDy=0;entryX=0.75;entryY=1;entryDx=0;entryDy=0;" parent="1" source="ptOAySIuDSNhJ5s_2BM6-9" target="ptOAySIuDSNhJ5s_2BM6-3" edge="1">
          <mxGeometry relative="1" as="geometry">
            <mxPoint x="1370" y="420" as="sourcePoint" />
            <mxPoint x="867.5" y="280" as="targetPoint" />
            <Array as="points">
              <mxPoint x="1285" y="475" />
              <mxPoint x="1285" y="500" />
              <mxPoint x="1210" y="500" />
              <mxPoint x="1210" y="475" />
              <mxPoint x="1180" y="475" />
              <mxPoint x="1180" y="330" />
              <mxPoint x="868" y="330" />
            </Array>
          </mxGeometry>
        </mxCell>
        <mxCell id="ptOAySIuDSNhJ5s_2BM6-9" value="&lt;font style=&quot;font-size: 12px;&quot;&gt;IDLE&lt;/font&gt;&lt;div&gt;&lt;font style=&quot;font-size: 11px;&quot;&gt;stopAgent()&lt;/font&gt;&lt;/div&gt;&lt;div&gt;&lt;font style=&quot;&quot;&gt;&lt;span style=&quot;font-size: 11px;&quot;&gt;getZoneToService().setSeverity(FireSeverity.NO_FIRE)&lt;/span&gt;&lt;/font&gt;&lt;/div&gt;&lt;div&gt;&lt;font style=&quot;&quot;&gt;&lt;span style=&quot;font-size: 11px;&quot;&gt;sendDroneInfo()&lt;/span&gt;&lt;/font&gt;&lt;/div&gt;&lt;div&gt;&lt;font style=&quot;&quot;&gt;&lt;span style=&quot;font-size: 11px;&quot;&gt;setZoneToService(null)&lt;/span&gt;&lt;/font&gt;&lt;/div&gt;" style="html=1;align=center;verticalAlign=top;rounded=1;absoluteArcSize=1;arcSize=10;dashed=0;whiteSpace=wrap;" parent="1" vertex="1">
          <mxGeometry x="1170" y="475" width="310" height="90" as="geometry" />
        </mxCell>
        <mxCell id="ptOAySIuDSNhJ5s_2BM6-11" style="edgeStyle=orthogonalEdgeStyle;rounded=0;orthogonalLoop=1;jettySize=auto;html=1;exitX=0.5;exitY=1;exitDx=0;exitDy=0;entryX=0.25;entryY=0;entryDx=0;entryDy=0;" parent="1" source="ptOAySIuDSNhJ5s_2BM6-10" target="ptOAySIuDSNhJ5s_2BM6-1" edge="1">
          <mxGeometry relative="1" as="geometry" />
        </mxCell>
        <mxCell id="ptOAySIuDSNhJ5s_2BM6-10" value="" style="ellipse;fillColor=strokeColor;html=1;" parent="1" vertex="1">
          <mxGeometry x="210" y="170" width="30" height="30" as="geometry" />
        </mxCell>
        <mxCell id="ptOAySIuDSNhJ5s_2BM6-26" value="&lt;span style=&quot;color: rgb(0, 0, 0); font-family: Helvetica; font-size: 11px; font-style: normal; font-variant-ligatures: normal; font-variant-caps: normal; font-weight: 400; letter-spacing: normal; orphans: 2; text-align: center; text-indent: 0px; text-transform: none; widows: 2; word-spacing: 0px; -webkit-text-stroke-width: 0px; white-space: nowrap; background-color: rgb(255, 255, 255); text-decoration-thickness: initial; text-decoration-style: initial; text-decoration-color: initial; float: none; display: inline !important;&quot;&gt;eventReqServiceZone()&amp;nbsp;&lt;/span&gt;" style="text;whiteSpace=wrap;html=1;" parent="1" vertex="1">
          <mxGeometry x="340" y="230" width="150" height="30" as="geometry" />
        </mxCell>
        <mxCell id="ptOAySIuDSNhJ5s_2BM6-28" value="&lt;font style=&quot;font-size: 11px;&quot;&gt;eventReachMaxHeight()&amp;nbsp;&lt;/font&gt;" style="text;html=1;align=center;verticalAlign=middle;resizable=0;points=[];autosize=1;strokeColor=none;fillColor=none;" parent="1" vertex="1">
          <mxGeometry x="610" y="225" width="150" height="30" as="geometry" />
        </mxCell>
        <mxCell id="ptOAySIuDSNhJ5s_2BM6-29" value="&lt;font style=&quot;font-size: 11px;&quot;&gt;eventReachTopSpeed()&lt;/font&gt;" style="text;html=1;align=center;verticalAlign=middle;resizable=0;points=[];autosize=1;strokeColor=none;fillColor=none;" parent="1" vertex="1">
          <mxGeometry x="900" y="230" width="140" height="30" as="geometry" />
        </mxCell>
        <mxCell id="ptOAySIuDSNhJ5s_2BM6-30" value="&lt;font style=&quot;font-size: 11px;&quot;&gt;eventReachDecelRange()&lt;/font&gt;" style="text;html=1;align=center;verticalAlign=middle;resizable=0;points=[];autosize=1;strokeColor=none;fillColor=none;" parent="1" vertex="1">
          <mxGeometry x="1170" y="230" width="150" height="30" as="geometry" />
        </mxCell>
        <mxCell id="ptOAySIuDSNhJ5s_2BM6-33" value="&lt;font style=&quot;font-size: 11px;&quot;&gt;eventReachDestination()&lt;/font&gt;" style="text;html=1;align=center;verticalAlign=middle;resizable=0;points=[];autosize=1;strokeColor=none;fillColor=none;" parent="1" vertex="1">
          <mxGeometry x="1210" y="400" width="140" height="30" as="geometry" />
        </mxCell>
        <mxCell id="ptOAySIuDSNhJ5s_2BM6-36" value="&lt;font style=&quot;font-size: 11px;&quot;&gt;eventLanded()&lt;/font&gt;" style="text;html=1;align=center;verticalAlign=middle;resizable=0;points=[];autosize=1;strokeColor=none;fillColor=none;" parent="1" vertex="1">
          <mxGeometry x="90" y="300" width="90" height="30" as="geometry" />
        </mxCell>
        <mxCell id="ptOAySIuDSNhJ5s_2BM6-38" value="" style="ellipse;html=1;shape=endState;fillColor=strokeColor;" parent="1" vertex="1">
          <mxGeometry x="280" y="170" width="30" height="30" as="geometry" />
        </mxCell>
        <mxCell id="ptOAySIuDSNhJ5s_2BM6-41" value="&lt;font style=&quot;font-size: 11px;&quot;&gt;eventReachDestination()&lt;/font&gt;" style="text;html=1;align=center;verticalAlign=middle;resizable=0;points=[];autosize=1;strokeColor=none;fillColor=none;" parent="1" vertex="1">
          <mxGeometry x="1210" y="345" width="140" height="30" as="geometry" />
        </mxCell>
        <mxCell id="ptOAySIuDSNhJ5s_2BM6-44" value="&lt;span style=&quot;color: rgb(0, 0, 0); font-family: Helvetica; font-size: 11px; font-style: normal; font-variant-ligatures: normal; font-variant-caps: normal; font-weight: 400; letter-spacing: normal; orphans: 2; text-align: center; text-indent: 0px; text-transform: none; widows: 2; word-spacing: 0px; -webkit-text-stroke-width: 0px; white-space: nowrap; background-color: rgb(255, 255, 255); text-decoration-thickness: initial; text-decoration-style: initial; text-decoration-color: initial; float: none; display: inline !important;&quot;&gt;eventReqRelAgent()&amp;nbsp;&lt;/span&gt;" style="text;whiteSpace=wrap;html=1;" parent="1" vertex="1">
          <mxGeometry x="560" y="490" width="150" height="25" as="geometry" />
        </mxCell>
        <mxCell id="ptOAySIuDSNhJ5s_2BM6-45" value="&lt;span style=&quot;color: rgb(0, 0, 0); font-family: Helvetica; font-size: 11px; font-style: normal; font-variant-ligatures: normal; font-variant-caps: normal; font-weight: 400; letter-spacing: normal; orphans: 2; text-align: center; text-indent: 0px; text-transform: none; widows: 2; word-spacing: 0px; -webkit-text-stroke-width: 0px; white-space: nowrap; background-color: rgb(255, 255, 255); text-decoration-thickness: initial; text-decoration-style: initial; text-decoration-color: initial; float: none; display: inline !important;&quot;&gt;eventFireExtinguished()&amp;nbsp;&lt;/span&gt;" style="text;whiteSpace=wrap;html=1;" parent="1" vertex="1">
          <mxGeometry x="1034" y="480" width="150" height="20" as="geometry" />
        </mxCell>
        <mxCell id="ptOAySIuDSNhJ5s_2BM6-46" value="&lt;span style=&quot;color: rgb(0, 0, 0); font-family: Helvetica; font-size: 11px; font-style: normal; font-variant-ligatures: normal; font-variant-caps: normal; font-weight: 400; letter-spacing: normal; orphans: 2; text-align: center; text-indent: 0px; text-transform: none; widows: 2; word-spacing: 0px; -webkit-text-stroke-width: 0px; white-space: nowrap; background-color: rgb(255, 255, 255); text-decoration-thickness: initial; text-decoration-style: initial; text-decoration-color: initial; float: none; display: inline !important;&quot;&gt;eventReqServiceZone()&amp;nbsp;&lt;/span&gt;" style="text;whiteSpace=wrap;html=1;" parent="1" vertex="1">
          <mxGeometry x="712.5" y="445" width="180" height="30" as="geometry" />
        </mxCell>
        <mxCell id="ptOAySIuDSNhJ5s_2BM6-51" value="&lt;span style=&quot;color: rgb(0, 0, 0); font-family: Helvetica; font-size: 11px; font-style: normal; font-variant-ligatures: normal; font-variant-caps: normal; font-weight: 400; letter-spacing: normal; orphans: 2; text-align: center; text-indent: 0px; text-transform: none; widows: 2; word-spacing: 0px; -webkit-text-stroke-width: 0px; white-space: nowrap; background-color: rgb(255, 255, 255); text-decoration-thickness: initial; text-decoration-style: initial; text-decoration-color: initial; float: none; display: inline !important;&quot;&gt;eventReqServiceZone()&amp;nbsp;&lt;/span&gt;" style="text;whiteSpace=wrap;html=1;" parent="1" vertex="1">
          <mxGeometry x="892.5" y="305" width="137.5" height="20" as="geometry" />
        </mxCell>
        <mxCell id="ptOAySIuDSNhJ5s_2BM6-52" value="&lt;span style=&quot;color: rgb(0, 0, 0); font-family: Helvetica; font-size: 11px; font-style: normal; font-variant-ligatures: normal; font-variant-caps: normal; font-weight: 400; letter-spacing: normal; orphans: 2; text-align: center; text-indent: 0px; text-transform: none; widows: 2; word-spacing: 0px; -webkit-text-stroke-width: 0px; white-space: nowrap; background-color: rgb(255, 255, 255); text-decoration-thickness: initial; text-decoration-style: initial; text-decoration-color: initial; float: none; display: inline !important;&quot;&gt;eventReqServiceZone()&amp;nbsp;&lt;/span&gt;" style="text;whiteSpace=wrap;html=1;" parent="1" vertex="1">
          <mxGeometry x="420" y="335" width="180" height="25" as="geometry" />
        </mxCell>
        <mxCell id="ptOAySIuDSNhJ5s_2BM6-53" value="&lt;span style=&quot;color: rgb(0, 0, 0); font-family: Helvetica; font-size: 11px; font-style: normal; font-variant-ligatures: normal; font-variant-caps: normal; font-weight: 400; letter-spacing: normal; orphans: 2; text-align: center; text-indent: 0px; text-transform: none; widows: 2; word-spacing: 0px; -webkit-text-stroke-width: 0px; white-space: nowrap; background-color: rgb(255, 255, 255); text-decoration-thickness: initial; text-decoration-style: initial; text-decoration-color: initial; float: none; display: inline !important;&quot;&gt;eventReqServiceZone()&amp;nbsp;&lt;/span&gt;" style="text;whiteSpace=wrap;html=1;" parent="1" vertex="1">
          <mxGeometry x="220" y="350" width="180" height="30" as="geometry" />
        </mxCell>
        <mxCell id="ptOAySIuDSNhJ5s_2BM6-55" value="&lt;span style=&quot;color: rgb(0, 0, 0); font-family: Helvetica; font-size: 11px; font-style: normal; font-variant-ligatures: normal; font-variant-caps: normal; font-weight: 400; letter-spacing: normal; orphans: 2; text-align: center; text-indent: 0px; text-transform: none; widows: 2; word-spacing: 0px; -webkit-text-stroke-width: 0px; white-space: nowrap; background-color: rgb(255, 255, 255); text-decoration-thickness: initial; text-decoration-style: initial; text-decoration-color: initial; float: none; display: inline !important;&quot;&gt;eventReqServiceZone()&amp;nbsp;&lt;/span&gt;" style="text;whiteSpace=wrap;html=1;" parent="1" vertex="1">
          <mxGeometry x="1210" y="190" width="150" height="30" as="geometry" />
        </mxCell>
        <mxCell id="KKQHg4e0GaB2o_yV03jN-1" value="&lt;div&gt;&lt;span style=&quot;color: rgb(0, 0, 0); font-family: Helvetica; font-size: 11px; font-style: normal; font-variant-ligatures: normal; font-variant-caps: normal; font-weight: 400; letter-spacing: normal; orphans: 2; text-align: center; text-indent: 0px; text-transform: none; widows: 2; word-spacing: 0px; -webkit-text-stroke-width: 0px; white-space: nowrap; background-color: rgb(255, 255, 255); text-decoration-thickness: initial; text-decoration-style: initial; text-decoration-color: initial; float: none; display: inline !important;&quot;&gt;eventReqToRecall()&lt;/span&gt;&lt;/div&gt;" style="text;whiteSpace=wrap;html=1;" parent="1" vertex="1">
          <mxGeometry x="892.5" y="330" width="265" height="20" as="geometry" />
        </mxCell>
        <mxCell id="Pik9YApiqzYa1CgCp2Tj-2" value="FAULT&lt;div&gt;handleFault()&lt;/div&gt;" style="html=1;align=center;verticalAlign=top;rounded=1;absoluteArcSize=1;arcSize=10;dashed=0;whiteSpace=wrap;" parent="1" vertex="1">
          <mxGeometry x="1570" y="325" width="100" height="40" as="geometry" />
        </mxCell>
        <mxCell id="Pik9YApiqzYa1CgCp2Tj-4" style="edgeStyle=orthogonalEdgeStyle;rounded=0;orthogonalLoop=1;jettySize=auto;html=1;exitX=0.5;exitY=1;exitDx=0;exitDy=0;dashed=1;" parent="1" source="ptOAySIuDSNhJ5s_2BM6-7" edge="1">
          <mxGeometry relative="1" as="geometry">
            <Array as="points">
              <mxPoint x="470" y="650" />
              <mxPoint x="1660" y="650" />
              <mxPoint x="1660" y="365" />
            </Array>
            <mxPoint x="1410" y="610" as="sourcePoint" />
            <mxPoint x="1660" y="365" as="targetPoint" />
          </mxGeometry>
        </mxCell>
        <mxCell id="Pik9YApiqzYa1CgCp2Tj-6" style="edgeStyle=orthogonalEdgeStyle;rounded=0;orthogonalLoop=1;jettySize=auto;html=1;exitX=0.5;exitY=1;exitDx=0;exitDy=0;dashed=1;entryX=0.5;entryY=1;entryDx=0;entryDy=0;" parent="1" source="ptOAySIuDSNhJ5s_2BM6-8" target="Pik9YApiqzYa1CgCp2Tj-2" edge="1">
          <mxGeometry relative="1" as="geometry">
            <Array as="points">
              <mxPoint x="835" y="630" />
              <mxPoint x="1620" y="630" />
            </Array>
            <mxPoint x="480" y="550" as="sourcePoint" />
            <mxPoint x="1670" y="375" as="targetPoint" />
          </mxGeometry>
        </mxCell>
        <mxCell id="Pik9YApiqzYa1CgCp2Tj-7" style="edgeStyle=orthogonalEdgeStyle;rounded=0;orthogonalLoop=1;jettySize=auto;html=1;exitX=0.5;exitY=1;exitDx=0;exitDy=0;dashed=1;entryX=0.114;entryY=1.022;entryDx=0;entryDy=0;entryPerimeter=0;" parent="1" source="ptOAySIuDSNhJ5s_2BM6-9" target="Pik9YApiqzYa1CgCp2Tj-2" edge="1">
          <mxGeometry relative="1" as="geometry">
            <Array as="points">
              <mxPoint x="1285" y="600" />
              <mxPoint x="1581" y="600" />
            </Array>
            <mxPoint x="1285" y="574.2" as="sourcePoint" />
            <mxPoint x="1580" y="370" as="targetPoint" />
          </mxGeometry>
        </mxCell>
        <mxCell id="Pik9YApiqzYa1CgCp2Tj-8" style="edgeStyle=orthogonalEdgeStyle;rounded=0;orthogonalLoop=1;jettySize=auto;html=1;exitX=1;exitY=0.5;exitDx=0;exitDy=0;dashed=1;entryX=0.124;entryY=0.009;entryDx=0;entryDy=0;entryPerimeter=0;" parent="1" source="ptOAySIuDSNhJ5s_2BM6-5" target="Pik9YApiqzYa1CgCp2Tj-2" edge="1">
          <mxGeometry relative="1" as="geometry">
            <Array as="points">
              <mxPoint x="1583" y="260" />
              <mxPoint x="1583" y="300" />
              <mxPoint x="1582" y="300" />
            </Array>
            <mxPoint x="1480" y="194.95999999999998" as="sourcePoint" />
            <mxPoint x="1776" y="-4.0400000000000205" as="targetPoint" />
          </mxGeometry>
        </mxCell>
        <mxCell id="Pik9YApiqzYa1CgCp2Tj-9" style="edgeStyle=orthogonalEdgeStyle;rounded=0;orthogonalLoop=1;jettySize=auto;html=1;exitX=0.5;exitY=0;exitDx=0;exitDy=0;dashed=1;entryX=0.451;entryY=0.004;entryDx=0;entryDy=0;entryPerimeter=0;" parent="1" source="ptOAySIuDSNhJ5s_2BM6-4" target="Pik9YApiqzYa1CgCp2Tj-2" edge="1">
          <mxGeometry relative="1" as="geometry">
            <Array as="points">
              <mxPoint x="1110" y="170" />
              <mxPoint x="1615" y="170" />
            </Array>
            <mxPoint x="1320" y="134.95999999999998" as="sourcePoint" />
            <mxPoint x="1616" y="-64.04000000000002" as="targetPoint" />
          </mxGeometry>
        </mxCell>
        <mxCell id="Pik9YApiqzYa1CgCp2Tj-10" style="edgeStyle=orthogonalEdgeStyle;rounded=0;orthogonalLoop=1;jettySize=auto;html=1;exitX=0.5;exitY=0;exitDx=0;exitDy=0;dashed=1;entryX=0.699;entryY=0.009;entryDx=0;entryDy=0;entryPerimeter=0;" parent="1" target="Pik9YApiqzYa1CgCp2Tj-2" edge="1">
          <mxGeometry relative="1" as="geometry">
            <Array as="points">
              <mxPoint x="870" y="130" />
              <mxPoint x="1640" y="130" />
            </Array>
            <mxPoint x="870" y="240" as="sourcePoint" />
            <mxPoint x="1640" y="320" as="targetPoint" />
          </mxGeometry>
        </mxCell>
        <mxCell id="Pik9YApiqzYa1CgCp2Tj-11" style="edgeStyle=orthogonalEdgeStyle;rounded=0;orthogonalLoop=1;jettySize=auto;html=1;exitX=0.5;exitY=0;exitDx=0;exitDy=0;dashed=1;" parent="1" source="ptOAySIuDSNhJ5s_2BM6-2" target="Pik9YApiqzYa1CgCp2Tj-2" edge="1">
          <mxGeometry relative="1" as="geometry">
            <Array as="points">
              <mxPoint x="550" y="100" />
              <mxPoint x="1660" y="100" />
            </Array>
            <mxPoint x="880" y="250" as="sourcePoint" />
            <mxPoint x="1650" y="335" as="targetPoint" />
          </mxGeometry>
        </mxCell>
        <mxCell id="5zZkvC4ZwXkqrdySDNdL-19" style="edgeStyle=orthogonalEdgeStyle;rounded=0;orthogonalLoop=1;jettySize=auto;html=1;exitX=1;exitY=0.5;exitDx=0;exitDy=0;entryX=0.75;entryY=1;entryDx=0;entryDy=0;dashed=1;" edge="1" parent="1" source="5zZkvC4ZwXkqrdySDNdL-1" target="Pik9YApiqzYa1CgCp2Tj-2">
          <mxGeometry relative="1" as="geometry" />
        </mxCell>
        <mxCell id="5zZkvC4ZwXkqrdySDNdL-1" value="EMPTY_TANK&lt;div&gt;stopAgent()&lt;/div&gt;&lt;div&gt;requestTask()&lt;/div&gt;&lt;div&gt;setZoneToService(null)&lt;/div&gt;&lt;div&gt;setReleasedAgent(0)&lt;/div&gt;" style="html=1;align=center;verticalAlign=top;rounded=1;absoluteArcSize=1;arcSize=10;dashed=0;whiteSpace=wrap;" vertex="1" parent="1">
          <mxGeometry x="950" y="680" width="150" height="90" as="geometry" />
        </mxCell>
        <mxCell id="5zZkvC4ZwXkqrdySDNdL-15" value="" style="edgeStyle=orthogonalEdgeStyle;rounded=0;orthogonalLoop=1;jettySize=auto;html=1;entryX=0;entryY=0.75;entryDx=0;entryDy=0;" edge="1" parent="1" target="5zZkvC4ZwXkqrdySDNdL-1">
          <mxGeometry relative="1" as="geometry">
            <mxPoint x="860" y="551" as="sourcePoint" />
            <mxPoint x="860" y="732.5" as="targetPoint" />
          </mxGeometry>
        </mxCell>
        <mxCell id="5zZkvC4ZwXkqrdySDNdL-16" value="eventEmptyTank()" style="text;html=1;align=center;verticalAlign=middle;whiteSpace=wrap;rounded=0;" vertex="1" parent="1">
          <mxGeometry x="820" y="680" width="60" height="30" as="geometry" />
        </mxCell>
        <mxCell id="5zZkvC4ZwXkqrdySDNdL-17" style="edgeStyle=orthogonalEdgeStyle;rounded=0;orthogonalLoop=1;jettySize=auto;html=1;exitX=0.5;exitY=0;exitDx=0;exitDy=0;entryX=0.657;entryY=1.236;entryDx=0;entryDy=0;entryPerimeter=0;" edge="1" parent="1" source="5zZkvC4ZwXkqrdySDNdL-1" target="ptOAySIuDSNhJ5s_2BM6-3">
          <mxGeometry relative="1" as="geometry">
            <Array as="points">
              <mxPoint x="1025" y="450" />
              <mxPoint x="855" y="450" />
            </Array>
          </mxGeometry>
        </mxCell>
        <mxCell id="5zZkvC4ZwXkqrdySDNdL-18" value="eventReqToRecall()" style="edgeLabel;html=1;align=center;verticalAlign=middle;resizable=0;points=[];" vertex="1" connectable="0" parent="5zZkvC4ZwXkqrdySDNdL-17">
          <mxGeometry x="0.209" y="-9" relative="1" as="geometry">
            <mxPoint as="offset" />
          </mxGeometry>
        </mxCell>
      </root>
    </mxGraphModel>
  </diagram>
</mxfile>
